<svg version="1" xmlns="http://www.w3.org/2000/svg" width="933.333" height="933.333" viewBox="0 0 700.000000 700.000000"><path d="M144.4 45.9c-4.7 2.2-8.7 6.1-11.1 11.1-1.5 3-1.8 7-1.9 27.3-.1 13.1-.4 24.1-.8 24.4-.3.4-21.2.7-46.4.8-44.5.1-45.8.1-49.7 2.2-5.5 2.9-9.1 7-11 12.3-1.4 3.9-1.5 31.7-1.5 269.4 0 150.7.4 266.4.9 268.2 2.1 7.5 6.9 12.5 14.4 15.4 3.5 1.2 618.2 1.4 623.7.1 7.3-1.7 12-5.6 15.1-12.6 1.9-4.4 2-8.2 1.9-269.7 0-145.9-.2-266.5-.5-268-.6-3.2-4.3-9.8-6.5-11.6-.8-.7-3.3-2.2-5.5-3.4-3.9-2.2-4.7-2.2-49.5-2.4-25-.1-45.9-.3-46.5-.3-.6-.1-1-8.6-1.1-23.4 0-12.7-.2-24.1-.5-25.2-1-4.3-5.3-10.3-9.1-12.8-10.8-7-25.4-3.2-30.9 7.9-2.3 4.7-2.4 5.9-2.7 29.1-.2 18-.6 24.3-1.5 24.4-.7.1-20 .2-43 .2-27 .1-42.1-.2-42.5-.8-.4-.6-.7-11.1-.8-23.5-.1-12.4-.4-23.5-.7-24.7-4-16.2-24.4-21.6-36.4-9.7-5.9 6-6.5 9.2-6.5 34.4 0 11.8-.2 22.2-.4 23-.3 1.3-5.8 1.5-42.6 1.3-23.3 0-42.8-.1-43.4-.2-.8-.1-1.1-6.5-1.1-21.9 0-24.2-.4-27.8-3.8-33.1-3-4.7-5.2-6.4-10.8-8.6-5.6-2.1-13.4-1.4-18.4 1.6-4.3 2.7-8.9 8.6-9.9 12.9-.4 1.9-.8 13.5-.8 25.7-.1 12.2-.5 22.5-.9 22.9-.8.8-83.1 1.3-85.4.6-1-.3-1.3-5.8-1.3-23.1 0-12.4-.4-24.1-1-26-3.6-12.5-18.2-19.5-29.6-14.2z"/></svg>